<svg xmlns="http://www.w3.org/2000/svg" width="67" height="67" viewBox="0 0 67 67">
	<title>Banque Alimentaire</title>
	<rect width="100" height="100" fill="white" />
	<path d="M33.5,7.3A26.17,26.17,0,0,0,9.4,43.5H20.7l-2.2-2.3.1-2.3c-1.2-.3-2.9-1.5-4.3-4.9a5.1,5.1,0,0,0-.9-1.4A12.48,12.48,0,0,1,9.1,27s1.2-.3,5.8-3.7a24.17,24.17,0,0,1,.2,4.7s-.2,2.3,1.1,2a18.11,18.11,0,0,1,6.2,0,21.86,21.86,0,0,0,2.5.4s.7.3,1.4-.8a2.73,2.73,0,0,1,2.5-1.1s2.7-.1,3.3,4l1.5,2.6-2.2-1a11.45,11.45,0,0,0-1.5.1s-.6-.1-1.9,1.1a12.3,12.3,0,0,1-6.3,3.6v1.5l4.1,3.2h2.5A5.9,5.9,0,0,1,26,39H40a6,6,0,0,1-2.3,4.6h3.8l3.7-2.8.4-1.6a7.21,7.21,0,0,1-2.6-.8l-3.2-1.5a9.21,9.21,0,0,0-3.8-.6l-2,1.3,1-2.8c0-4.2,2.6-4.5,2.6-4.5a2.68,2.68,0,0,1,2.7.6c.9,1,1.5.6,1.5.6a21.79,21.79,0,0,0,2.4-.8,12.92,12.92,0,0,1,5.6-.9c1.4.1.8-2.1.8-2.1a33,33,0,0,1-.5-4.9c5.1,2.6,6.8,2.8,6.8,2.8a13.11,13.11,0,0,1-3.3,6.3,6.38,6.38,0,0,0-.6,1.5c-1.1,5.1-3.7,5.8-4.4,5.9l.1,1.7L47,43.6H57.6A26.25,26.25,0,0,0,33.5,7.3Z" fill="#f27830"/>
	<path d="M0,0v67H67V0ZM33.5,61.6A28.1,28.1,0,1,1,61.6,33.5,28.06,28.06,0,0,1,33.5,61.6Z" fill="#f27830"/>
	<path d="M21.8,43.6l-2.4-2.5.1-1.9a1.36,1.36,0,0,0,.7,0c.4,0,.8-.1,1.2-.1v1.7l3.7,2.9H21.8Z" fill="#f27830"/>
	<path d="M46.4,39.3a9.63,9.63,0,0,0,1.7,0l.1,1.5-1.8,2.8H42.7L46,41.2Z" fill="#f27830"/>
	<path d="M33.5,59.6A26.1,26.1,0,0,1,10.3,45.4H56.8A26.3,26.3,0,0,1,33.5,59.6Z" fill="#f27830"/>
</svg>
